HIERARCHY
ROOT Hips
{
	OFFSET -0.001795 -0.223333 0.028219
	CHANNELS 6 Xposition Yposition Zposition Zrotation Yrotation Xrotation 
	JOINT LeftUpLeg
	{
		OFFSET 0.069520 -0.091406 -0.006815
		CHANNELS 3 Zrotation Yrotation Xrotation
		JOINT LeftLeg
		{
			OFFSET 0.034277 -0.375199 -0.004496
			CHANNELS 3 Zrotation Yrotation Xrotation
			JOINT LeftFoot
			{
				OFFSET -0.013596 -0.397961 -0.043693
				CHANNELS 3 Zrotation Yrotation Xrotation
				JOINT LeftToe
				{
					OFFSET 0.026358 -0.055791 0.119288
					CHANNELS 3 Zrotation Yrotation Xrotation
					End Site
					{
						OFFSET 0.000000 0.000000 0.000000
					}
				}
			}
		}
	}
	JOINT RightUpLeg
	{
		OFFSET -0.067670 -0.090522 -0.004320
		CHANNELS 3 Zrotation Yrotation Xrotation
		JOINT RightLeg
		{
			OFFSET -0.038290 -0.382569 -0.008850
			CHANNELS 3 Zrotation Yrotation Xrotation
			JOINT RightFoot
			{
				OFFSET 0.015774 -0.398415 -0.042312
				CHANNELS 3 Zrotation Yrotation Xrotation
				JOINT RightToe
				{
					OFFSET -0.025372 -0.048144 0.123348
					CHANNELS 3 Zrotation Yrotation Xrotation
					End Site
					{
						OFFSET 0.000000 0.000000 0.000000
					}
				}
			}
		}
	}
	JOINT Spine
	{
		OFFSET -0.002533 0.108963 -0.026696
		CHANNELS 3 Zrotation Yrotation Xrotation
		JOINT Spine1
		{
			OFFSET 0.005487 0.135180 0.001092
			CHANNELS 3 Zrotation Yrotation Xrotation
			JOINT Spine2
			{
				OFFSET 0.001457 0.052922 0.025425
				CHANNELS 3 Zrotation Yrotation Xrotation
				JOINT Neck
				{
					OFFSET -0.002778 0.213870 -0.042857
					CHANNELS 3 Zrotation Yrotation Xrotation
					JOINT Head
					{
						OFFSET 0.005152 0.064970 0.051349
						CHANNELS 3 Zrotation Yrotation Xrotation
						End Site
						{
							OFFSET 0.000000 0.000000 0.000000
						}
					}
				}
				JOINT LeftShoulder
				{
					OFFSET 0.078845 0.121749 -0.034090
					CHANNELS 3 Zrotation Yrotation Xrotation
					JOINT LeftArm
					{
						OFFSET 0.090977 0.030469 -0.008868
						CHANNELS 3 Zrotation Yrotation Xrotation
						JOINT LeftForeArm
						{
							OFFSET 0.259612 -0.012772 -0.027456
							CHANNELS 3 Zrotation Yrotation Xrotation
							JOINT LeftHand
							{
								OFFSET 0.249234 0.008986 -0.001171
								CHANNELS 3 Zrotation Yrotation Xrotation
								End Site
								{
									OFFSET 0.000000 0.000000 0.000000
								}
							}
						}
					}
				}
				JOINT RightShoulder
				{
					OFFSET -0.081759 0.118833 -0.038615
					CHANNELS 3 Zrotation Yrotation Xrotation
					JOINT RightArm
					{
						OFFSET -0.096012 0.032551 -0.009143
						CHANNELS 3 Zrotation Yrotation Xrotation
						JOINT RightForeArm
						{
							OFFSET -0.253742 -0.013329 -0.021401
							CHANNELS 3 Zrotation Yrotation Xrotation
							JOINT RightHand
							{
								OFFSET -0.255298 0.007772 -0.005559
								CHANNELS 3 Zrotation Yrotation Xrotation
								End Site
								{
									OFFSET 0.000000 0.000000 0.000000
								}
							}
						}
					}
				}
			}
		}
	}
}
MOTION
Frames: 11
Frame Time: 0.050000
0.040363 0.957658 -0.015209 4.792294 13.164391 9.739847 3.271457 -0.929200 -10.974620 0.956758 -0.113483 0.649156 -6.353648 0.484526 20.493217 0.000000 0.000000 0.000000 -11.269332 -0.024067 -8.779498 -7.097403 1.255090 4.789178 2.976988 0.181364 20.810959 0.000000 0.000000 0.000000 7.043001 0.019951 -3.880391 0.597247 -0.581050 2.846709 -7.118647 15.194956 5.616011 16.134303 -23.894383 15.422472 0.000000 0.000000 0.000000 37.659928 -3.502855 9.373980 -46.511374 -50.456888 4.390020 112.850891 -36.567711 -61.528901 0.000000 0.000000 0.000000 -34.698389 3.473920 -2.935649 69.224015 17.719275 15.727707 -128.813763 32.755965 -40.622507 0.000000 0.000000 0.000000 
0.039922 0.954810 -0.015774 4.238680 11.808377 10.006139 3.417654 -0.884422 -10.610564 1.174318 -0.121728 0.383258 -4.520269 1.698584 17.892281 0.000000 0.000000 0.000000 -10.796349 0.064067 -10.337531 -6.565886 1.279254 6.191861 2.261710 -0.794604 19.061919 0.000000 0.000000 0.000000 7.816135 -0.139012 -2.385259 -0.500006 0.123408 0.851828 -7.133797 14.616154 5.480598 16.775116 -24.103909 14.987555 0.000000 0.000000 0.000000 29.629829 -5.183973 8.103324 -67.769488 -46.570658 9.360606 122.990294 -37.872500 -69.228220 0.000000 0.000000 0.000000 -27.735089 0.258112 -2.850368 85.739865 23.655176 26.473489 -130.442700 30.137922 -41.878696 0.000000 0.000000 0.000000 
0.040308 0.951368 -0.015551 3.476160 11.187005 10.286608 3.793520 -0.901962 -11.044048 1.183617 -0.130533 0.524077 -2.643257 3.887786 16.742910 0.000000 0.000000 0.000000 -10.819944 0.090916 -10.858448 -4.224683 0.923739 6.801956 0.618561 -2.997490 16.002542 0.000000 0.000000 0.000000 7.902362 -0.172638 -2.143547 -0.314177 -0.108060 2.890821 -8.887563 12.679223 2.750632 16.158473 -22.652731 14.945736 0.000000 0.000000 0.000000 22.034645 -5.778920 6.662385 -86.167629 -41.776338 12.379190 132.861184 -40.162584 -80.752088 0.000000 0.000000 0.000000 -20.407363 -1.955534 -2.383172 99.316932 25.298665 33.497549 -130.948996 26.546220 -40.072201 0.000000 0.000000 0.000000 
0.041343 0.948520 -0.014878 2.315309 9.773144 9.481946 4.327162 -0.777100 -9.840068 1.873118 -0.178663 0.151379 -1.206565 5.377400 15.660534 0.000000 0.000000 0.000000 -10.345927 0.190277 -10.687951 -2.868446 0.716704 7.292891 0.564192 -2.949025 14.273407 0.000000 0.000000 0.000000 8.392956 -0.307137 -0.805858 -0.632362 0.049097 3.309048 -9.158861 10.407132 1.802525 15.061554 -22.133834 17.321001 0.000000 0.000000 0.000000 16.514878 -7.461948 5.420232 -94.176021 -38.705492 14.453435 136.456081 -39.894000 -83.349711 0.000000 0.000000 0.000000 -14.575493 -2.121580 -1.648184 106.184207 24.989791 34.022750 -132.380060 27.631821 -45.505605 0.000000 0.000000 0.000000 
0.042524 0.947530 -0.014718 1.741108 8.765011 8.710149 4.554777 -0.714508 -9.232177 2.251207 -0.256253 0.813908 -0.530219 6.024087 15.061916 0.000000 0.000000 0.000000 -9.735355 0.270022 -10.599538 -2.510309 0.720929 8.739567 0.085445 -3.485070 12.090788 0.000000 0.000000 0.000000 7.861657 -0.268967 -0.692756 -0.532527 0.025438 3.249943 -9.044445 5.784925 2.703011 11.742811 -17.314622 17.893636 0.000000 0.000000 0.000000 15.582171 -9.204655 4.788275 -91.066685 -42.371876 21.441568 131.959116 -35.539352 -69.434101 0.000000 0.000000 0.000000 -11.998727 -1.555542 -0.805233 107.778336 23.234926 27.873636 -138.328077 34.799193 -66.458089 0.000000 0.000000 0.000000 
0.043419 0.949077 -0.015714 0.913258 7.741194 8.951007 5.019569 -0.673054 -8.870086 2.735928 -0.245997 -0.218870 -0.061215 6.749245 15.581284 0.000000 0.000000 0.000000 -8.093282 0.464746 -11.669329 -3.232318 0.851826 8.392843 -0.739524 -5.749024 14.388454 0.000000 0.000000 0.000000 6.317097 -0.133006 -1.506748 0.260063 -0.439320 4.537541 -8.295633 2.380403 1.988504 9.177400 -13.465779 18.091907 0.000000 0.000000 0.000000 18.330385 -10.067207 4.586537 -81.589374 -49.595773 27.099764 121.941416 -29.204501 -48.750211 0.000000 0.000000 0.000000 -12.926118 -1.997794 -0.370510 102.910223 17.568962 15.605044 -147.585963 41.453299 -92.912220 0.000000 0.000000 0.000000 
0.043406 0.951811 -0.018478 0.110258 6.568924 8.673591 6.345563 -0.617782 -8.780326 1.825748 -0.192266 0.316427 0.220976 7.042801 15.793449 0.000000 0.000000 0.000000 -6.461649 0.634170 -11.668881 -3.823293 0.938529 7.837312 -1.403233 -7.297301 15.017724 0.000000 0.000000 0.000000 4.387075 -0.149216 -0.361480 2.336285 -1.281729 2.121697 -8.253095 0.048252 4.070432 6.968408 -10.073722 16.890544 0.000000 0.000000 0.000000 24.531771 -10.806895 4.323023 -69.338974 -53.196924 25.436660 114.033960 -22.007391 -31.650120 0.000000 0.000000 0.000000 -14.884241 -3.959300 -0.367497 96.655269 13.793235 7.819798 -155.408628 45.759694 -113.322240 0.000000 0.000000 0.000000 
0.042292 0.953666 -0.022378 -1.005845 6.257185 9.473160 7.442711 -0.642916 -10.128607 2.403709 -0.294603 1.066606 -0.096583 6.385681 15.407618 0.000000 0.000000 0.000000 -5.040544 0.832200 -13.189040 -3.950220 0.950122 7.646312 -1.544574 -7.943473 16.773855 0.000000 0.000000 0.000000 2.980468 -0.157434 0.451098 3.395411 -1.746816 1.565146 -7.216600 -2.398712 3.573781 6.143228 -8.484100 16.392897 0.000000 0.000000 0.000000 28.215113 -11.413739 3.871380 -61.120056 -53.924463 23.316415 108.681562 -17.814512 -22.549236 0.000000 0.000000 0.000000 -15.226790 -4.242732 0.053188 93.973231 13.147148 4.805347 -157.328457 48.140718 -121.043697 0.000000 0.000000 0.000000 
0.040706 0.954440 -0.026799 -1.335574 6.124044 10.449851 8.257263 -0.681995 -12.008482 2.240683 -0.355456 2.417757 -0.738481 5.199808 14.914925 0.000000 0.000000 0.000000 -4.575778 0.961636 -14.778475 -3.595754 0.883676 7.600520 -2.261302 -9.381847 17.773351 0.000000 0.000000 0.000000 2.189024 -0.225431 2.055177 3.994143 -1.886421 0.031074 -7.134722 -2.851954 3.699671 5.121671 -7.353788 16.734921 0.000000 0.000000 0.000000 28.165859 -10.692650 3.717541 -60.429827 -52.518796 22.295269 104.779078 -19.323598 -22.602087 0.000000 0.000000 0.000000 -14.891049 -5.757713 -0.225681 94.114886 10.549899 1.926778 -161.534798 49.312573 -130.661814 0.000000 0.000000 0.000000 
0.039404 0.952362 -0.030852 -1.306293 7.038924 11.072604 8.724803 -0.756648 -14.173236 1.807600 -0.406924 4.245945 -1.141153 4.435897 14.192309 0.000000 0.000000 0.000000 -4.191901 1.042065 -16.129114 -3.407265 0.918603 8.969987 -3.796321 -11.721997 16.713977 0.000000 0.000000 0.000000 1.826717 -0.286595 3.400883 4.315309 -1.995445 -0.422323 -7.357772 -1.886774 2.802956 6.807890 -8.894296 14.821282 0.000000 0.000000 0.000000 25.089209 -10.259407 4.045379 -66.018262 -49.155534 21.900667 103.916603 -26.410191 -31.331835 0.000000 0.000000 0.000000 -13.309252 -4.716604 -0.368908 96.371501 10.893757 3.586699 -158.130289 51.147606 -125.931013 0.000000 0.000000 0.000000 
0.039422 0.949279 -0.034513 -0.892126 9.080290 11.425034 8.670417 -0.906863 -16.288088 1.122390 -0.452973 6.596237 -1.336546 3.555848 12.072532 0.000000 0.000000 0.000000 -4.929096 0.919247 -17.010229 -2.802650 0.813420 9.710293 -5.027188 -13.545184 17.800396 0.000000 0.000000 0.000000 2.414471 -0.474813 5.439277 3.153740 -1.403015 -1.076720 -7.161228 1.032554 2.514310 9.281890 -11.203215 12.146886 0.000000 0.000000 0.000000 18.824189 -9.060237 4.374052 -72.773629 -43.232078 18.484185 104.312606 -41.404188 -50.661510 0.000000 0.000000 0.000000 -10.042378 -2.623578 -0.562434 98.296254 12.676259 8.376237 -147.334843 54.741419 -110.414637 0.000000 0.000000 0.000000 
